<?xml version="1.0" encoding="UTF-8" standalone="no"?><svg id="svg7384" style="enable-background:new" version="1.1" xmlns="http://www.w3.org/2000/svg" viewBox="0 0 16.000002 16"><title id="title8473">Gnome Symbolic Icons</title><defs id="defs7386"/><g id="layer10" transform="translate(-312,-872)"/><g id="layer1" transform="translate(-312,-808)"/><g id="layer11" transform="translate(-312,-872)"/><g id="layer7" transform="translate(-312,-808)"/><g id="layer6" transform="translate(-312,-808)"/><g id="layer5" transform="translate(-312,-808)"/><g id="layer9" transform="translate(-312,-808)"/><g id="layer2" transform="translate(-312,-808)"/><g id="layer8" transform="translate(-312,-808)"/><g id="layer3" transform="translate(-312,-808)"/><g id="layer4" transform="translate(-312,-808)"><path d="m 314.5,810 c -1.385,0 -2.5,1.115 -2.5,2.5 v 7 c 0,1.385 1.115,2.5 2.5,2.5 h 8.375 l 2.0776,1.9724 1.0474,10e-4 v -2.03592 c 1.14126,-0.23235 2,-1.22563 2,-2.4375 v -7 c 0,-1.385 -1.115,-2.5 -2.5,-2.5 z m 0,2 h 11 c 0.277,0 0.5,0.223 0.5,0.5 v 7 c 0,0.277 -0.223,0.5 -0.5,0.5 h -11 c -0.277,0 -0.5,-0.223 -0.5,-0.5 v -7 c 0,-0.277 0.223,-0.5 0.5,-0.5 z m 4.5,1 v 2 h -2 v 2 h 2 v 2 h 2 v -2 h 2 v -2 h -2 v -2 z" id="path4075" style="fill:#2e3436;fill-opacity:1;stroke:none;stroke-width:1px;stroke-linecap:butt;stroke-linejoin:miter;stroke-opacity:1"/></g></svg>