<?xml version="1.0" encoding="UTF-8" standalone="no"?><svg xmlns="http://www.w3.org/2000/svg" viewBox="0 0 16 16" version="1.1" id="svg7384"><title id="title9167">Gnome Symbolic Icon Theme</title><defs id="defs7386"><linearGradient id="linearGradient7212"><stop style="stop-color:#000000;stop-opacity:1;" offset="0" id="stop7214"/></linearGradient></defs><g transform="translate(-341.0002,-13.000323)" style="display:inline" id="layer9"/><g transform="translate(-100,-380.00032)" id="layer1"/><g transform="translate(-100,-380.00032)" style="display:inline" id="layer10"><path d="m 108,382 a 8,8 0 0 0 -7.73828,6.00977 A 8,8 0 0 0 108,394 8,8 0 0 0 115.73828,387.99023 8,8 0 0 0 108,382 Z m 0,2 a 4,4 0 0 1 4,4 4,4 0 0 1 -4,4 4,4 0 0 1 -4,-4 4,4 0 0 1 4,-4 z" id="path2314" style="opacity:1;vector-effect:none;fill:#2e3436;fill-opacity:1;stroke:none;stroke-width:1.5;stroke-linecap:butt;stroke-linejoin:round;stroke-miterlimit:4;stroke-dasharray:none;stroke-dashoffset:0;stroke-opacity:1;marker:none;marker-start:none;marker-mid:none;marker-end:none;paint-order:normal"/><path id="path2318" d="m 110,388.00003 a 2,2 0 0 1 -2,2 2,2 0 0 1 -2,-2 2,2 0 0 1 2,-2 2,2 0 0 1 2,2 z" style="vector-effect:none;fill:#2e3436;fill-opacity:1;stroke:none;stroke-width:1;stroke-linecap:round;stroke-linejoin:round;stroke-miterlimit:4;stroke-dasharray:none;stroke-opacity:1"/></g><g transform="translate(-100,-380.00032)" id="g6387"/><g transform="translate(-100,-380.00032)" id="layer11"/></svg>